<?xml version="1.0" encoding="UTF-8"?>
<svg width="24px" height="24px" viewBox="0 0 24 24" version="1.1" xmlns="http://www.w3.org/2000/svg" xmlns:xlink="http://www.w3.org/1999/xlink">
    <defs>
        <path d="M22.421404,9.81818182 L11.6063738,9.81818182 L11.6063738,14.4545455 L17.8316107,14.4545455 C17.251292,17.4 14.8245047,19.0909091 11.6063738,19.0909091 C7.8079242,19.0909091 4.74806202,15.9272727 4.74806202,12 C4.74806202,8.07272727 7.8079242,4.90909091 11.6063738,4.90909091 C13.2418174,4.90909091 14.7189922,5.50909091 15.8796296,6.49090909 L19.2560293,3 C17.1985357,1.14545455 14.5607235,0 11.6063738,0 C5.17011197,0 0,5.34545455 0,12 C0,18.6545455 5.17011197,24 11.6063738,24 C17.4095607,24 22.6851852,19.6363636 22.6851852,12 C22.6851852,11.2909091 22.5796727,10.5272727 22.421404,9.81818182 Z" id="path-1"></path>
        <path d="M22.421404,9.81818182 L11.6063738,9.81818182 L11.6063738,14.4545455 L17.8316107,14.4545455 C17.251292,17.4 14.8245047,19.0909091 11.6063738,19.0909091 C7.8079242,19.0909091 4.74806202,15.9272727 4.74806202,12 C4.74806202,8.07272727 7.8079242,4.90909091 11.6063738,4.90909091 C13.2418174,4.90909091 14.7189922,5.50909091 15.8796296,6.49090909 L19.2560293,3 C17.1985357,1.14545455 14.5607235,0 11.6063738,0 C5.17011197,0 0,5.34545455 0,12 C0,18.6545455 5.17011197,24 11.6063738,24 C17.4095607,24 22.6851852,19.6363636 22.6851852,12 C22.6851852,11.2909091 22.5796727,10.5272727 22.421404,9.81818182 Z" id="path-3"></path>
        <path d="M22.421404,9.81818182 L11.6063738,9.81818182 L11.6063738,14.4545455 L17.8316107,14.4545455 C17.251292,17.4 14.8245047,19.0909091 11.6063738,19.0909091 C7.8079242,19.0909091 4.74806202,15.9272727 4.74806202,12 C4.74806202,8.07272727 7.8079242,4.90909091 11.6063738,4.90909091 C13.2418174,4.90909091 14.7189922,5.50909091 15.8796296,6.49090909 L19.2560293,3 C17.1985357,1.14545455 14.5607235,0 11.6063738,0 C5.17011197,0 0,5.34545455 0,12 C0,18.6545455 5.17011197,24 11.6063738,24 C17.4095607,24 22.6851852,19.6363636 22.6851852,12 C22.6851852,11.2909091 22.5796727,10.5272727 22.421404,9.81818182 Z" id="path-5"></path>
        <path d="M22.421404,9.81818182 L11.6063738,9.81818182 L11.6063738,14.4545455 L17.8316107,14.4545455 C17.251292,17.4 14.8245047,19.0909091 11.6063738,19.0909091 C7.8079242,19.0909091 4.74806202,15.9272727 4.74806202,12 C4.74806202,8.07272727 7.8079242,4.90909091 11.6063738,4.90909091 C13.2418174,4.90909091 14.7189922,5.50909091 15.8796296,6.49090909 L19.2560293,3 C17.1985357,1.14545455 14.5607235,0 11.6063738,0 C5.17011197,0 0,5.34545455 0,12 C0,18.6545455 5.17011197,24 11.6063738,24 C17.4095607,24 22.6851852,19.6363636 22.6851852,12 C22.6851852,11.2909091 22.5796727,10.5272727 22.421404,9.81818182 Z" id="path-7"></path>
    </defs>
    <g id="Page-1" stroke="none" stroke-width="1" fill="none" fill-rule="evenodd">
        <g id="1.1-Sign-Up-M" transform="translate(-516.000000, -559.000000)">
            <g id="Group-8" transform="translate(516.000000, 559.000000)">
                <g id="Group-5">
                    <rect id="Rectangle-Copy-4" fill-rule="nonzero" x="0" y="0" width="24" height="24"></rect>
                    <g id="Google__G__Logo" transform="translate(0.666667, 0.000000)">
                        <g id="Clipped">
                            <mask id="mask-2" fill="white">
                                <use xlink:href="#path-1"></use>
                            </mask>
                            <g id="a"></g>
                            <polygon id="Shape" fill="#FBBC05" fill-rule="nonzero" mask="url(#mask-2)" points="-1.05512489 19.0909091 -1.05512489 4.90909091 7.91343669 12"></polygon>
                        </g>
                        <g id="Clipped">
                            <mask id="mask-4" fill="white">
                                <use xlink:href="#path-3"></use>
                            </mask>
                            <g id="a"></g>
                            <polygon id="Shape" fill="#EA4335" fill-rule="nonzero" mask="url(#mask-4)" points="-1.05512489 4.90909091 7.91343669 12 11.6063738 8.67272727 24.2678725 6.54545455 24.2678725 -1.09090909 -1.05512489 -1.09090909"></polygon>
                        </g>
                        <g id="Clipped">
                            <mask id="mask-6" fill="white">
                                <use xlink:href="#path-5"></use>
                            </mask>
                            <g id="a"></g>
                            <polygon id="Shape" fill="#34A853" fill-rule="nonzero" mask="url(#mask-6)" points="-1.05512489 19.0909091 14.7717485 6.54545455 18.9394918 7.09090909 24.2678725 -1.09090909 24.2678725 25.0909091 -1.05512489 25.0909091"></polygon>
                        </g>
                        <g id="Clipped">
                            <mask id="mask-8" fill="white">
                                <use xlink:href="#path-7"></use>
                            </mask>
                            <g id="a"></g>
                            <polygon id="Shape" fill="#4285F4" fill-rule="nonzero" mask="url(#mask-8)" points="24.2678725 25.0909091 7.91343669 12 5.80318691 10.3636364 24.2678725 4.90909091"></polygon>
                        </g>
                    </g>
                </g>
            </g>
        </g>
    </g>
</svg>
